<svg xmlns="http://www.w3.org/2000/svg" width="880" height="240" viewBox="0 0 880 240" role="img" aria-label="ILLIT - Magnetic">
  <defs>
    <linearGradient id="mag-bg" x1="0" y1="0" x2="1" y2="1">
      <stop offset="0" stop-color="#FBF6FF"/>
      <stop offset="100%" stop-color="#F3EAFF"/>
    </linearGradient>
  </defs>
  <rect width="880" height="240" fill="url(#mag-bg)"/>
  <g fill="none" stroke-linecap="round">
    <path d="M250 120 Q440 30 630 120" stroke="#FF9EC4" stroke-width="5" opacity="0.7"/>
    <path d="M230 120 Q440 8 650 120" stroke="#B5A8FF" stroke-width="5" opacity="0.6"/>
    <path d="M270 120 Q440 56 610 120" stroke="#7FD8FF" stroke-width="5" opacity="0.7"/>
  </g>
  <g stroke="#B5A8FF" stroke-width="22" fill="none" stroke-linecap="butt">
    <path d="M392 96 a48 48 0 0 1 96 0"/>
  </g>
  <rect x="381" y="96" width="22" height="30" fill="#FF9EC4"/>
  <rect x="477" y="96" width="22" height="30" fill="#7FD8FF"/>
  <g fill="#B5A8FF">
    <path d="M160 80 l3 8 8 1 -6 6 2 8 -7 -4 -6 4 1 -8 -6 -6 8 -1 Z"/>
    <path d="M712 70 l2 7 7 1 -5 5 1 7 -5 -4 -5 4 1 -7 -5 -5 7 -1 Z"/>
  </g>
  <text x="440" y="208" text-anchor="middle" font-family="Tahoma,'Segoe UI',sans-serif" font-weight="800" font-size="72" letter-spacing="6" fill="#7A5FE0">MAGNETIC</text>
</svg>
